<svg width="252" height="50" viewBox="0 0 252 50" fill="none" xmlns="http://www.w3.org/2000/svg">
<mask id="mask0_32_108" style="mask-type:alpha" maskUnits="userSpaceOnUse" x="13" y="9" width="32" height="32">
<path fill-rule="evenodd" clip-rule="evenodd" d="M35.1333 9H22.8667C19.3911 9 17.1867 9.01778 15.0978 11.0978C13.0089 13.1867 13 15.4 13 18.8667V31.1333C13 34.6089 13.0178 36.8133 15.0978 38.9022C17.1867 40.9911 19.4 41 22.8667 41H35.1333C38.6089 41 40.8133 40.9911 42.9022 38.9022C44.9822 36.8133 45 34.6 45 31.1333V18.8667C45 15.3911 44.9822 13.1867 42.9022 11.0978C40.8133 9.00889 38.6 9 35.1333 9Z" fill="url(#paint0_linear_32_108)"/>
</mask>
<g mask="url(#mask0_32_108)">
<rect x="13" y="9" width="32" height="32" fill="url(#paint1_linear_32_108)"/>
<path fill-rule="evenodd" clip-rule="evenodd" d="M20.3511 39.2933C25.4355 39.2933 34.4755 39.2933 34.4755 39.2933C37.7467 39.2933 39.8622 39.4177 41.8178 37.4444C43.4978 35.7644 43.3555 32.9378 43.4622 30.6978C41.5689 33.5422 38.0933 33.4444 35.4089 33.4444C35.4089 33.4444 22.8489 33.4444 18.1555 33.4444C13.4622 33.4533 15.2667 39.2933 20.3511 39.2933Z" fill="#FEF5EB"/>
<path d="M18.876 34.1911H23.8893V37.9511L21.3826 36.6978L18.876 37.9511V34.1911Z" fill="#FF3D4D"/>
<path d="M26.7051 19.9293C27.0429 20.1337 27.434 20.2315 27.8785 20.2315C28.3051 20.2315 28.6963 20.1249 29.034 19.9026C29.3807 19.6804 29.6385 19.3693 29.8251 18.9782C30.0207 18.5782 30.1096 18.1249 30.1096 17.6271C30.1096 17.1115 30.0207 16.6582 29.834 16.276C29.6474 15.8937 29.3896 15.6004 29.0518 15.396C28.714 15.1915 28.3229 15.0938 27.8874 15.0938C27.4607 15.0938 27.0696 15.2004 26.7229 15.4226C26.3851 15.6449 26.1185 15.956 25.9318 16.3471C25.7451 16.7471 25.6562 17.2004 25.6562 17.6982C25.6562 18.2137 25.7451 18.6671 25.9318 19.0493C26.1096 19.4315 26.3674 19.7249 26.7051 19.9293ZM26.5185 17.6715C26.5185 17.2182 26.5718 16.8182 26.6874 16.4715C26.8029 16.1249 26.9629 15.8582 27.1674 15.6804C27.3718 15.4937 27.6029 15.4049 27.8607 15.4049C28.1185 15.4049 28.3407 15.4937 28.554 15.6715C28.7674 15.8493 28.9363 16.1071 29.0607 16.4537C29.194 16.7915 29.2563 17.1915 29.2563 17.6537C29.2563 18.1071 29.194 18.5071 29.0785 18.8537C28.9629 19.2004 28.8029 19.4671 28.5985 19.6537C28.4029 19.8315 28.1718 19.9293 27.9051 19.9293C27.6474 19.9293 27.4251 19.8404 27.2118 19.6626C26.9985 19.4849 26.8296 19.2271 26.6963 18.8804C26.5807 18.5249 26.5185 18.1249 26.5185 17.6715Z" fill="#FEF5EB"/>
<path d="M38.5279 26.7915C38.4923 26.4715 38.4834 26.1871 38.4834 25.9382C38.4834 25.7337 38.4923 25.5826 38.5012 25.4671L38.5101 25.3604H38.4034H38.2523H38.1634L38.1545 25.4493C38.1279 25.7693 38.0745 26.0004 38.0123 26.1515C37.9501 26.2937 37.8612 26.3915 37.7367 26.4626C37.6123 26.5249 37.4167 26.5604 37.1501 26.5604H36.6612C36.5012 26.5604 36.3945 26.5515 36.3323 26.5337C36.2879 26.516 36.2612 26.4893 36.2434 26.436C36.2256 26.3737 36.2079 26.2671 36.2079 26.0982V24.5782H36.5545C36.7145 24.5782 36.8301 24.6226 36.9101 24.6937C36.9901 24.7649 37.0434 24.8893 37.0701 25.0582C37.0967 25.2449 37.1056 25.3515 37.1145 25.3871L37.1234 25.4671H37.2034H37.3545H37.4523L37.4434 25.3693C37.4167 24.9604 37.399 24.6404 37.399 24.4182V24.0982C37.399 23.8671 37.4079 23.6537 37.4167 23.4671L37.4256 23.3693H37.319H37.1679H37.0879L37.079 23.4493L37.0612 23.5826C37.0434 23.7337 37.0167 23.8582 36.9901 23.9471C36.9723 24.0271 36.9279 24.0982 36.8479 24.1604C36.7856 24.2137 36.6879 24.2493 36.5456 24.2493H36.199V22.756C36.199 22.5871 36.2167 22.4804 36.2345 22.4182C36.2523 22.3649 36.279 22.3382 36.3234 22.3293C36.3856 22.3115 36.4923 22.2937 36.6523 22.2937H37.2123C37.4434 22.2937 37.6034 22.3293 37.7012 22.3826C37.7901 22.436 37.8612 22.516 37.9056 22.6404C37.9501 22.7649 37.9945 22.9782 38.0212 23.2626L38.0301 23.3515H38.119H38.2701H38.3767L38.359 23.2449C38.3501 23.1471 38.3412 23.0137 38.3412 22.836C38.3412 22.6049 38.359 22.3471 38.3856 22.0537L38.3945 21.9471H34.8301V22.2671L34.919 22.276C35.079 22.2849 35.1856 22.3026 35.239 22.3204C35.2923 22.3382 35.319 22.3649 35.3367 22.4182C35.3545 22.4804 35.3723 22.5871 35.3723 22.756V26.0804C35.3723 26.2493 35.3545 26.356 35.3367 26.4182C35.319 26.4715 35.2923 26.4982 35.239 26.516C35.1856 26.5337 35.079 26.5515 34.919 26.5604L34.8301 26.5693V26.8893H38.5279V26.7915Z" fill="#FEF5EB"/>
<path d="M34.3766 20.1427L34.3677 20.036C34.3321 19.716 34.3233 19.4315 34.3233 19.1827C34.3233 18.9515 34.3321 18.7738 34.341 18.6404L34.3499 18.5338H34.2433H34.0921H34.0033L33.9944 18.6227C33.9588 18.9515 33.9144 19.1915 33.8521 19.3604C33.7899 19.5204 33.701 19.6271 33.5677 19.6982C33.4433 19.7604 33.2477 19.8049 32.981 19.8049H32.4921C32.3321 19.8049 32.2255 19.796 32.1633 19.7782C32.1188 19.7604 32.0921 19.7338 32.0744 19.6804C32.0566 19.6182 32.0388 19.5115 32.0388 19.3427V15.9827C32.0388 15.8138 32.0566 15.7071 32.0744 15.6449C32.0921 15.5915 32.1188 15.5649 32.1633 15.5471C32.2255 15.5293 32.3321 15.5115 32.4921 15.5027L32.581 15.4938V15.4049V15.2715V15.1738H30.6699V15.2804V15.4138V15.5027L30.7588 15.5115C30.9188 15.5204 31.0255 15.5382 31.0788 15.556C31.1321 15.5738 31.1588 15.6004 31.1766 15.6538C31.1944 15.716 31.2121 15.8227 31.2121 15.9915V19.3249C31.2121 19.4938 31.1944 19.6004 31.1766 19.6627C31.1588 19.716 31.1321 19.7427 31.0788 19.7604C31.0255 19.7782 30.9188 19.796 30.7588 19.8049L30.6699 19.8138V19.9027V20.036V20.1338L34.3766 20.1427Z" fill="#FEF5EB"/>
<path d="M23.1229 24.6404C22.9451 24.4537 22.6696 24.3204 22.3229 24.2404C22.5451 24.1426 22.7229 24.0093 22.8474 23.8493C23.0251 23.6271 23.114 23.3693 23.114 23.0937C23.114 22.7471 22.9807 22.4626 22.7051 22.2493C22.4385 22.036 22.0651 21.9382 21.594 21.9382C21.4874 21.9382 19.6562 21.9204 19.6562 21.9204V22.0271V22.1604V22.2493L19.7451 22.2582C19.9051 22.2671 20.0118 22.2849 20.0651 22.3026C20.1185 22.3204 20.1451 22.3471 20.1629 22.4004C20.1807 22.4626 20.1985 22.5693 20.1985 22.7382V26.0804C20.1985 26.2493 20.1807 26.356 20.1629 26.4182C20.1451 26.4715 20.1185 26.4982 20.0651 26.516C20.0118 26.5337 19.9051 26.5515 19.7451 26.5604L19.6562 26.5693V26.6582V26.7915V26.8982C19.6562 26.8982 21.6207 26.8893 21.7451 26.8893C22.0918 26.8893 22.3851 26.836 22.6429 26.7204C22.9007 26.6049 23.0962 26.436 23.2385 26.2226C23.3807 26.0093 23.4518 25.7604 23.4518 25.4937C23.4696 25.156 23.354 24.8715 23.1229 24.6404ZM21.0251 22.7382C21.0251 22.5782 21.0429 22.4715 21.0607 22.4004C21.0785 22.3382 21.114 22.3115 21.1496 22.2849C21.2029 22.2582 21.2918 22.2493 21.4251 22.2493C21.7451 22.2493 21.9496 22.3293 22.074 22.4626C22.1985 22.6049 22.2696 22.8271 22.2696 23.156C22.2696 23.476 22.1985 23.716 22.0651 23.9026C21.9496 24.0626 21.7274 24.1604 21.3718 24.1604H21.0162V22.7382H21.0251ZM22.314 26.276C22.1274 26.4537 21.8429 26.5426 21.434 26.5426C21.3007 26.5426 21.2029 26.5337 21.1496 26.5071C21.1051 26.4893 21.0785 26.4537 21.0607 26.4004C21.0429 26.3382 21.0251 26.2315 21.0251 26.0715V24.4626H21.4962C21.9051 24.4626 22.1807 24.5515 22.3407 24.7115C22.5096 24.8715 22.5985 25.1115 22.5985 25.4493C22.5985 25.8404 22.5007 26.1071 22.314 26.276Z" fill="#FEF5EB"/>
<path d="M29.8788 24.6404C29.8788 24.6404 29.8699 24.6404 29.8788 24.6404C29.8699 24.6404 29.8699 24.6404 29.8788 24.6404C29.701 24.4537 29.4254 24.3204 29.0788 24.2404C29.301 24.1426 29.4788 24.0093 29.6032 23.8493C29.781 23.6271 29.8699 23.3693 29.8699 23.0937C29.8699 22.7471 29.7366 22.4626 29.461 22.2493C29.1943 22.036 28.821 21.9382 28.3499 21.9382C28.2432 21.9382 26.4121 21.9204 26.4121 21.9204V22.0271V22.1604V22.2493L26.501 22.2582C26.661 22.2671 26.7677 22.2849 26.821 22.3026C26.8743 22.3204 26.901 22.3471 26.9188 22.4004C26.9366 22.4626 26.9543 22.5693 26.9543 22.7382V26.0804C26.9543 26.2493 26.9366 26.356 26.9188 26.4182C26.901 26.4715 26.8743 26.4982 26.821 26.516C26.7677 26.5337 26.661 26.5515 26.501 26.5604L26.4121 26.5693V26.6582V26.7915V26.8982C26.4121 26.8982 28.3766 26.8893 28.501 26.8893C28.8477 26.8893 29.141 26.836 29.3988 26.7204C29.6566 26.6049 29.8521 26.436 29.9943 26.2226C30.1366 26.0093 30.2077 25.7604 30.2077 25.4937C30.2166 25.156 30.101 24.8715 29.8788 24.6404ZM29.4077 22.3204C29.3988 22.3204 29.3988 22.3204 29.4077 22.3204V22.3204ZM27.781 22.7382C27.781 22.5782 27.7988 22.4715 27.8166 22.4004C27.8343 22.3382 27.8699 22.3115 27.9054 22.2849C27.9588 22.2582 28.0477 22.2493 28.181 22.2493C28.501 22.2493 28.7054 22.3293 28.8299 22.4626C28.9543 22.6049 29.0254 22.8271 29.0254 23.156C29.0254 23.476 28.9543 23.716 28.821 23.9026C28.7054 24.0626 28.4832 24.1604 28.1277 24.1604H27.7721V22.7382H27.781ZM29.0699 26.276C28.8832 26.4537 28.5988 26.5426 28.1899 26.5426C28.0477 26.5426 27.9588 26.5337 27.9054 26.5071C27.861 26.4893 27.8343 26.4537 27.8166 26.4004C27.7988 26.3382 27.781 26.2315 27.781 26.0715V24.4626H28.2521C28.661 24.4626 28.9366 24.5515 29.0966 24.7115C29.2654 24.8715 29.3543 25.1115 29.3543 25.4493C29.3543 25.8404 29.2566 26.1071 29.0699 26.276Z" fill="#FEF5EB"/>
<path d="M23.9766 21.9204V22.0271V22.1604V22.2493L24.0655 22.2582C24.2255 22.2671 24.3321 22.2849 24.3855 22.3026C24.4388 22.3204 24.4655 22.3471 24.4832 22.4004C24.501 22.4626 24.5188 22.5693 24.5188 22.7382V26.0804C24.5188 26.2493 24.501 26.356 24.4832 26.4182C24.4655 26.4715 24.4388 26.4982 24.3855 26.516C24.3321 26.5337 24.2255 26.5515 24.0655 26.5604L23.9766 26.5693V26.6582V26.7915V26.8982H25.8877V26.8004V26.6671V26.5782L25.7988 26.5693C25.6388 26.5604 25.5321 26.5426 25.4699 26.5249C25.4255 26.5071 25.3988 26.4804 25.381 26.4271C25.3632 26.3648 25.3455 26.2582 25.3455 26.0893V22.7471C25.3455 22.5782 25.3632 22.4715 25.381 22.4093C25.3988 22.356 25.4255 22.3293 25.4699 22.3115C25.5321 22.2937 25.6388 22.276 25.7988 22.2671L25.8877 22.2582V22.1693V22.036V21.9382L23.9766 21.9204Z" fill="#FEF5EB"/>
<path d="M22.2783 20.1426V20.0449V19.9115V19.8226L22.1894 19.8137C22.0294 19.8049 21.9227 19.7871 21.8605 19.7693C21.8161 19.7515 21.7894 19.7249 21.7716 19.6715C21.7539 19.6093 21.7361 19.5026 21.7361 19.3337V17.8049H23.7361V19.3249C23.7361 19.4937 23.7183 19.6004 23.7005 19.6626C23.6827 19.716 23.6561 19.7426 23.6027 19.7604C23.5494 19.7782 23.4427 19.796 23.2827 19.8049L23.1939 19.8137V19.9026V20.036V20.1337H25.105V20.0271V19.8937V19.8049L25.0161 19.796C24.8561 19.7871 24.7494 19.7693 24.6872 19.7515C24.6427 19.7337 24.6161 19.7071 24.5983 19.6537C24.5805 19.5915 24.5627 19.4849 24.5627 19.316V15.9826C24.5627 15.8137 24.5805 15.7071 24.5983 15.6449C24.6161 15.5915 24.6427 15.5649 24.6872 15.5471C24.7494 15.5293 24.8561 15.5115 25.0161 15.5026L25.105 15.4937V15.4049V15.2715V15.1649H23.1939V15.2626V15.396V15.4849L23.2827 15.4937C23.4427 15.5026 23.5494 15.5204 23.6027 15.5382C23.6561 15.556 23.6827 15.5826 23.7005 15.636C23.7183 15.6982 23.7361 15.8049 23.7361 15.9737V17.4671H21.7361V15.9826C21.7361 15.8137 21.7539 15.7071 21.7716 15.6449C21.7894 15.5915 21.8161 15.5649 21.8605 15.5471C21.9227 15.5293 22.0294 15.5115 22.1894 15.5026L22.2783 15.4937V15.4049V15.2715V15.1737H20.3672V15.2804V15.4137V15.5026L20.4561 15.5115C20.6161 15.5204 20.7227 15.5382 20.7761 15.556C20.8294 15.5737 20.8561 15.6004 20.8739 15.6537C20.8916 15.716 20.9094 15.8226 20.9094 15.9915V19.3249C20.9094 19.4937 20.8916 19.6004 20.8739 19.6626C20.8561 19.716 20.8294 19.7426 20.7761 19.7604C20.7227 19.7782 20.6161 19.796 20.4561 19.8049L20.3672 19.8137V19.9026V20.036V20.1426H22.2783Z" fill="#FEF5EB"/>
<path d="M34.2249 15.5649C34.2782 15.6093 34.3404 15.6893 34.4204 15.8404L35.7804 18.3471V19.3249C35.7804 19.4937 35.7626 19.6004 35.7449 19.6626C35.7271 19.716 35.7004 19.7426 35.6471 19.7604C35.5937 19.7782 35.4871 19.796 35.3271 19.8049L35.2382 19.8137V19.9026V20.036V20.1426L37.0426 20.1337L37.1404 20.1426V20.0449V19.9115V19.8226L37.0515 19.8137C36.8915 19.8049 36.7849 19.7871 36.7226 19.7693C36.6782 19.7515 36.6515 19.7249 36.6337 19.6715C36.616 19.6093 36.5982 19.5026 36.5982 19.3337V18.1337L37.6471 16.0537C37.7448 15.8671 37.8337 15.7337 37.9049 15.6537C37.9849 15.5649 38.056 15.5204 38.1182 15.5026L38.1893 15.4849V15.4137V15.2804V15.1737H36.8204L36.7226 15.1649V15.2626V15.396V15.4849H36.8115C37.0071 15.4849 37.1315 15.5204 37.2115 15.5649C37.2737 15.6004 37.3093 15.6537 37.3093 15.7515C37.3093 15.876 37.256 16.0537 37.1404 16.2849L36.3582 17.8315L35.3271 15.8582C35.2826 15.7782 35.2737 15.716 35.2737 15.6626C35.2737 15.636 35.2826 15.6182 35.2915 15.6004C35.3004 15.5826 35.3182 15.5649 35.3449 15.556C35.3982 15.5204 35.5049 15.5026 35.656 15.5026H35.7537V15.4137V15.2715V15.1649H34.0293V15.2715V15.4137V15.5115H34.1271C34.136 15.5115 34.1715 15.5204 34.2249 15.5649Z" fill="#FEF5EB"/>
<path d="M34.3671 25.9382C34.3671 25.7071 34.376 25.5293 34.3849 25.396L34.3938 25.2893H34.2871H34.136H34.0471L34.0382 25.3782C34.0027 25.7071 33.9582 25.9471 33.896 26.116C33.8338 26.276 33.7449 26.3826 33.6204 26.4537C33.496 26.516 33.3004 26.5604 33.0338 26.5604H32.5449C32.3849 26.5604 32.2782 26.5515 32.216 26.5337C32.1715 26.516 32.1449 26.4893 32.1271 26.436C32.1093 26.3737 32.0915 26.2671 32.0915 26.0982V22.756C32.0915 22.5871 32.1093 22.4804 32.1271 22.4182C32.1449 22.3649 32.1715 22.3382 32.216 22.3204C32.2782 22.3026 32.3849 22.2849 32.5449 22.276L32.6338 22.2671V22.1782V22.0449V21.9471H30.7227V22.0537V22.1871V22.276L30.8115 22.2849C30.9715 22.2937 31.0782 22.3115 31.1315 22.3293C31.1849 22.3471 31.2115 22.3737 31.2293 22.4271C31.2471 22.4893 31.2649 22.596 31.2649 22.7649V26.0804C31.2649 26.2493 31.2471 26.356 31.2293 26.4182C31.2115 26.4715 31.1849 26.4982 31.1315 26.516C31.0782 26.5337 30.9715 26.5515 30.8115 26.5604L30.7227 26.5693V26.6582V26.7915V26.8893H34.4204L34.4115 26.7826C34.3849 26.4715 34.3671 26.1871 34.3671 25.9382Z" fill="#FEF5EB"/>
</g>
<path d="M53.3779 18.6545H56.5384L59.5815 24.402H59.7118L62.755 18.6545H65.9154L61.0477 27.2822V32H58.2457V27.2822L53.3779 18.6545ZM68.7291 32.1955C67.7169 32.1955 66.8415 31.9805 66.103 31.5504C65.3688 31.116 64.8019 30.5121 64.4022 29.7388C64.0025 28.9612 63.8027 28.0598 63.8027 27.0346C63.8027 26.0006 64.0025 25.097 64.4022 24.3238C64.8019 23.5461 65.3688 22.9423 66.103 22.5122C66.8415 22.0778 67.7169 21.8606 68.7291 21.8606C69.7413 21.8606 70.6145 22.0778 71.3486 22.5122C72.0872 22.9423 72.6562 23.5461 73.0559 24.3238C73.4556 25.097 73.6554 26.0006 73.6554 27.0346C73.6554 28.0598 73.4556 28.9612 73.0559 29.7388C72.6562 30.5121 72.0872 31.116 71.3486 31.5504C70.6145 31.9805 69.7413 32.1955 68.7291 32.1955ZM68.7421 30.0451C69.2026 30.0451 69.587 29.9148 69.8955 29.6541C70.2039 29.3891 70.4363 29.0286 70.5927 28.5724C70.7535 28.1163 70.8338 27.5971 70.8338 27.015C70.8338 26.4329 70.7535 25.9137 70.5927 25.4576C70.4363 25.0015 70.2039 24.6409 69.8955 24.3759C69.587 24.1109 69.2026 23.9784 68.7421 23.9784C68.2773 23.9784 67.8863 24.1109 67.5692 24.3759C67.2564 24.6409 67.0196 25.0015 66.8589 25.4576C66.7025 25.9137 66.6243 26.4329 66.6243 27.015C66.6243 27.5971 66.7025 28.1163 66.8589 28.5724C67.0196 29.0286 67.2564 29.3891 67.5692 29.6541C67.8863 29.9148 68.2773 30.0451 68.7421 30.0451ZM80.778 27.7383V21.9909H83.554V32H80.8888V30.1819H80.7845C80.5586 30.7684 80.1829 31.2398 79.6572 31.596C79.1359 31.9522 78.4995 32.1303 77.7479 32.1303C77.0789 32.1303 76.4903 31.9783 75.982 31.6742C75.4737 31.3701 75.0762 30.9378 74.7895 30.3774C74.5071 29.817 74.3638 29.1458 74.3594 28.3639V21.9909H77.1354V27.8686C77.1397 28.4595 77.2983 28.9265 77.6111 29.2697C77.9239 29.6128 78.3431 29.7844 78.8687 29.7844C79.2032 29.7844 79.516 29.7084 79.8071 29.5564C80.0982 29.4 80.3327 29.1697 80.5109 28.8656C80.6933 28.5615 80.7824 28.1858 80.778 27.7383ZM87.1366 18.6545L90.3622 28.794H90.486L93.7181 18.6545H96.8459L92.2454 32H88.6093L84.0022 18.6545H87.1366ZM100.732 32.1955C99.702 32.1955 98.8158 31.987 98.0729 31.5699C97.3344 31.1485 96.7653 30.5534 96.3656 29.7844C95.966 29.0112 95.7661 28.0967 95.7661 27.0411C95.7661 26.0115 95.966 25.1079 96.3656 24.3303C96.7653 23.5527 97.3279 22.9466 98.0534 22.5122C98.7832 22.0778 99.639 21.8606 100.621 21.8606C101.281 21.8606 101.896 21.967 102.465 22.1799C103.038 22.3884 103.538 22.7034 103.964 23.1248C104.394 23.5461 104.728 24.0761 104.967 24.7147C105.206 25.349 105.326 26.0919 105.326 26.9433V27.7057H96.8739V25.9854H102.713C102.713 25.5858 102.626 25.2317 102.452 24.9233C102.278 24.6148 102.037 24.3737 101.729 24.1999C101.424 24.0218 101.07 23.9328 100.666 23.9328C100.245 23.9328 99.8714 24.0305 99.5456 24.226C99.2241 24.4172 98.9722 24.6756 98.7897 25.0015C98.6072 25.3229 98.5138 25.6813 98.5095 26.0767V27.7123C98.5095 28.2075 98.6007 28.6354 98.7832 28.996C98.97 29.3565 99.2328 29.6346 99.5717 29.8301C99.9105 30.0256 100.312 30.1233 100.777 30.1233C101.086 30.1233 101.368 30.0799 101.624 29.993C101.881 29.9061 102.1 29.7758 102.282 29.602C102.465 29.4282 102.604 29.2154 102.7 28.9634L105.267 29.1328C105.137 29.7497 104.869 30.2884 104.465 30.7489C104.066 31.205 103.549 31.5612 102.915 31.8175C102.285 32.0695 101.557 32.1955 100.732 32.1955ZM106.036 32V21.9909H108.727V23.7373H108.832C109.014 23.1161 109.32 22.6469 109.75 22.3298C110.181 22.0083 110.676 21.8475 111.236 21.8475C111.375 21.8475 111.525 21.8562 111.686 21.8736C111.847 21.891 111.988 21.9149 112.109 21.9453V24.4085C111.979 24.3694 111.799 24.3346 111.568 24.3042C111.338 24.2738 111.128 24.2586 110.936 24.2586C110.528 24.2586 110.163 24.3477 109.842 24.5258C109.525 24.6995 109.273 24.9428 109.086 25.2556C108.903 25.5684 108.812 25.9289 108.812 26.3373V32H106.036ZM120.771 24.8451L118.23 25.0015C118.187 24.7842 118.093 24.5888 117.95 24.415C117.807 24.2369 117.618 24.0957 117.383 23.9914C117.153 23.8828 116.877 23.8285 116.555 23.8285C116.125 23.8285 115.763 23.9197 115.467 24.1022C115.172 24.2803 115.024 24.5192 115.024 24.819C115.024 25.0579 115.12 25.2599 115.311 25.425C115.502 25.5901 115.83 25.7226 116.295 25.8225L118.106 26.1874C119.079 26.3873 119.805 26.7087 120.283 27.1518C120.761 27.595 121 28.1771 121 28.8982C121 29.5542 120.806 30.1298 120.42 30.6251C120.037 31.1203 119.512 31.5069 118.843 31.785C118.178 32.0586 117.411 32.1955 116.542 32.1955C115.217 32.1955 114.162 31.9196 113.375 31.3679C112.593 30.8119 112.135 30.056 112 29.1002L114.731 28.9569C114.813 29.3609 115.013 29.6693 115.33 29.8822C115.647 30.0907 116.054 30.195 116.549 30.195C117.035 30.195 117.426 30.1016 117.722 29.9148C118.022 29.7236 118.174 29.4782 118.178 29.1784C118.174 28.9265 118.067 28.7201 117.859 28.5594C117.65 28.3943 117.329 28.2683 116.894 28.1814L115.161 27.8361C114.183 27.6406 113.456 27.3017 112.978 26.8195C112.504 26.3373 112.268 25.7226 112.268 24.9754C112.268 24.3324 112.441 23.7786 112.789 23.3137C113.141 22.8489 113.634 22.4905 114.268 22.2385C114.907 21.9866 115.654 21.8606 116.51 21.8606C117.774 21.8606 118.769 22.1278 119.494 22.6621C120.224 23.1964 120.65 23.9241 120.771 24.8451ZM121.647 32V21.9909H124.422V32H121.647ZM123.041 20.7007C122.628 20.7007 122.274 20.5638 121.979 20.2901C121.688 20.0121 121.542 19.6798 121.542 19.2931C121.542 18.9109 121.688 18.5829 121.979 18.3092C122.274 18.0311 122.628 17.8921 123.041 17.8921C123.454 17.8921 123.806 18.0311 124.097 18.3092C124.392 18.5829 124.54 18.9109 124.54 19.2931C124.54 19.6798 124.392 20.0121 124.097 20.2901C123.806 20.5638 123.454 20.7007 123.041 20.7007ZM130.068 32.1955C129.055 32.1955 128.18 31.9805 127.441 31.5504C126.707 31.116 126.14 30.5121 125.741 29.7388C125.341 28.9612 125.141 28.0598 125.141 27.0346C125.141 26.0006 125.341 25.097 125.741 24.3238C126.14 23.5461 126.707 22.9423 127.441 22.5122C128.18 22.0778 129.055 21.8606 130.068 21.8606C131.08 21.8606 131.953 22.0778 132.687 22.5122C133.426 22.9423 133.995 23.5461 134.394 24.3238C134.794 25.097 134.994 26.0006 134.994 27.0346C134.994 28.0598 134.794 28.9612 134.394 29.7388C133.995 30.5121 133.426 31.116 132.687 31.5504C131.953 31.9805 131.08 32.1955 130.068 32.1955ZM130.081 30.0451C130.541 30.0451 130.926 29.9148 131.234 29.6541C131.542 29.3891 131.775 29.0286 131.931 28.5724C132.092 28.1163 132.172 27.5971 132.172 27.015C132.172 26.4329 132.092 25.9137 131.931 25.4576C131.775 25.0015 131.542 24.6409 131.234 24.3759C130.926 24.1109 130.541 23.9784 130.081 23.9784C129.616 23.9784 129.225 24.1109 128.908 24.3759C128.595 24.6409 128.358 25.0015 128.197 25.4576C128.041 25.9137 127.963 26.4329 127.963 27.015C127.963 27.5971 128.041 28.1163 128.197 28.5724C128.358 29.0286 128.595 29.3891 128.908 29.6541C129.225 29.9148 129.616 30.0451 130.081 30.0451ZM138.474 26.2135V32H135.698V21.9909H138.344V23.7568H138.461C138.682 23.1747 139.054 22.7142 139.575 22.3754C140.096 22.0322 140.729 21.8606 141.471 21.8606C142.166 21.8606 142.772 22.0126 143.289 22.3167C143.806 22.6208 144.208 23.0552 144.495 23.62C144.782 24.1804 144.925 24.8494 144.925 25.627V32H142.149V26.1223C142.153 25.5097 141.997 25.0319 141.68 24.6887C141.363 24.3411 140.926 24.1674 140.37 24.1674C139.997 24.1674 139.666 24.2477 139.38 24.4085C139.097 24.5692 138.876 24.8038 138.715 25.1122C138.559 25.4163 138.478 25.7834 138.474 26.2135ZM149.21 32V18.6545H154.475C155.487 18.6545 156.35 18.8479 157.062 19.2345C157.775 19.6168 158.318 20.149 158.691 20.831C159.069 21.5087 159.258 22.2907 159.258 23.1769C159.258 24.0631 159.067 24.8451 158.685 25.5228C158.303 26.2005 157.749 26.7283 157.023 27.1062C156.302 27.4842 155.429 27.6732 154.404 27.6732H151.048V25.412H153.947C154.49 25.412 154.938 25.3186 155.29 25.1318C155.646 24.9406 155.911 24.6778 156.085 24.3433C156.263 24.0045 156.352 23.6156 156.352 23.1769C156.352 22.7338 156.263 22.3471 156.085 22.017C155.911 21.6825 155.646 21.424 155.29 21.2415C154.934 21.0547 154.482 20.9613 153.934 20.9613H152.032V32H149.21ZM162.714 18.6545V32H159.938V18.6545H162.714ZM166.691 32.189C166.052 32.189 165.483 32.0782 164.983 31.8566C164.484 31.6307 164.088 31.2984 163.797 30.8596C163.511 30.4165 163.367 29.8648 163.367 29.2045C163.367 28.6484 163.469 28.1814 163.674 27.8035C163.878 27.4255 164.156 27.1214 164.508 26.8912C164.86 26.6609 165.259 26.4872 165.707 26.3699C166.158 26.2526 166.632 26.1701 167.127 26.1223C167.709 26.0614 168.179 26.005 168.535 25.9528C168.891 25.8964 169.149 25.8138 169.31 25.7052C169.471 25.5966 169.551 25.4359 169.551 25.223V25.1839C169.551 24.7712 169.421 24.4519 169.16 24.226C168.904 24.0001 168.539 23.8872 168.066 23.8872C167.566 23.8872 167.168 23.9979 166.873 24.2195C166.578 24.4367 166.382 24.7104 166.287 25.0406L163.719 24.832C163.85 24.2238 164.106 23.6982 164.488 23.2551C164.87 22.8076 165.363 22.4644 165.967 22.2255C166.576 21.9822 167.279 21.8606 168.079 21.8606C168.635 21.8606 169.167 21.9257 169.675 22.0561C170.188 22.1864 170.642 22.3884 171.037 22.6621C171.437 22.9358 171.752 23.2877 171.982 23.7177C172.212 24.1435 172.327 24.6539 172.327 25.2491V32H169.695V30.612H169.616C169.456 30.9248 169.241 31.2007 168.971 31.4396C168.702 31.6742 168.378 31.8588 168 31.9935C167.622 32.1238 167.186 32.189 166.691 32.189ZM167.486 30.2732C167.894 30.2732 168.255 30.1928 168.567 30.0321C168.88 29.867 169.126 29.6454 169.304 29.3674C169.482 29.0894 169.571 28.7744 169.571 28.4225V27.3604C169.484 27.4168 169.365 27.469 169.212 27.5168C169.065 27.5602 168.897 27.6015 168.711 27.6406C168.524 27.6753 168.337 27.7079 168.15 27.7383C167.963 27.7644 167.794 27.7883 167.642 27.81C167.316 27.8578 167.032 27.9338 166.788 28.0381C166.545 28.1423 166.356 28.2835 166.221 28.4616C166.087 28.6354 166.019 28.8526 166.019 29.1133C166.019 29.4912 166.156 29.7801 166.43 29.9799C166.708 30.1754 167.06 30.2732 167.486 30.2732ZM178.704 21.9909V24.0761H172.676V21.9909H178.704ZM174.045 19.5929H176.821V28.9243C176.821 29.1806 176.86 29.3804 176.938 29.5238C177.016 29.6628 177.125 29.7606 177.264 29.817C177.407 29.8735 177.572 29.9017 177.759 29.9017C177.889 29.9017 178.02 29.8909 178.15 29.8692C178.28 29.8431 178.38 29.8235 178.45 29.8105L178.886 31.8762C178.747 31.9196 178.552 31.9696 178.3 32.0261C178.048 32.0869 177.742 32.1238 177.381 32.1368C176.712 32.1629 176.125 32.0739 175.622 31.8697C175.122 31.6655 174.733 31.3484 174.455 30.9183C174.177 30.4882 174.04 29.9452 174.045 29.2892V19.5929ZM184.794 21.9909V24.0761H178.616V21.9909H184.794ZM180.03 32V21.2676C180.03 20.5421 180.171 19.9404 180.454 19.4626C180.74 18.9847 181.131 18.6263 181.627 18.3874C182.122 18.1484 182.684 18.029 183.314 18.029C183.74 18.029 184.129 18.0616 184.481 18.1267C184.837 18.1919 185.102 18.2505 185.276 18.3027L184.78 20.3879C184.672 20.3531 184.537 20.3206 184.376 20.2901C184.22 20.2597 184.059 20.2445 183.894 20.2445C183.486 20.2445 183.201 20.3401 183.041 20.5312C182.88 20.7181 182.8 20.9809 182.8 21.3197V32H180.03ZM189.552 32.1955C188.54 32.1955 187.665 31.9805 186.926 31.5504C186.192 31.116 185.625 30.5121 185.225 29.7388C184.826 28.9612 184.626 28.0598 184.626 27.0346C184.626 26.0006 184.826 25.097 185.225 24.3238C185.625 23.5461 186.192 22.9423 186.926 22.5122C187.665 22.0778 188.54 21.8606 189.552 21.8606C190.565 21.8606 191.438 22.0778 192.172 22.5122C192.91 22.9423 193.48 23.5461 193.879 24.3238C194.279 25.097 194.479 26.0006 194.479 27.0346C194.479 28.0598 194.279 28.9612 193.879 29.7388C193.48 30.5121 192.91 31.116 192.172 31.5504C191.438 31.9805 190.565 32.1955 189.552 32.1955ZM189.565 30.0451C190.026 30.0451 190.41 29.9148 190.719 29.6541C191.027 29.3891 191.26 29.0286 191.416 28.5724C191.577 28.1163 191.657 27.5971 191.657 27.015C191.657 26.4329 191.577 25.9137 191.416 25.4576C191.26 25.0015 191.027 24.6409 190.719 24.3759C190.41 24.1109 190.026 23.9784 189.565 23.9784C189.101 23.9784 188.71 24.1109 188.392 24.3759C188.08 24.6409 187.843 25.0015 187.682 25.4576C187.526 25.9137 187.448 26.4329 187.448 27.015C187.448 27.5971 187.526 28.1163 187.682 28.5724C187.843 29.0286 188.08 29.3891 188.392 29.6541C188.71 29.9148 189.101 30.0451 189.565 30.0451ZM195.183 32V21.9909H197.874V23.7373H197.978C198.161 23.1161 198.467 22.6469 198.897 22.3298C199.327 22.0083 199.822 21.8475 200.383 21.8475C200.522 21.8475 200.672 21.8562 200.832 21.8736C200.993 21.891 201.134 21.9149 201.256 21.9453V24.4085C201.126 24.3694 200.945 24.3346 200.715 24.3042C200.485 24.2738 200.274 24.2586 200.083 24.2586C199.675 24.2586 199.31 24.3477 198.988 24.5258C198.671 24.6995 198.419 24.9428 198.232 25.2556C198.05 25.5684 197.959 25.9289 197.959 26.3373V32H195.183ZM201.59 32V21.9909H204.236V23.7568H204.353C204.562 23.1704 204.909 22.7077 205.396 22.3689C205.882 22.03 206.464 21.8606 207.142 21.8606C207.828 21.8606 208.413 22.0322 208.895 22.3754C209.377 22.7142 209.699 23.1747 209.859 23.7568H209.964C210.168 23.1834 210.537 22.7251 211.071 22.3819C211.61 22.0344 212.247 21.8606 212.981 21.8606C213.915 21.8606 214.673 22.1582 215.255 22.7533C215.841 23.3441 216.135 24.1826 216.135 25.2686V32H213.365V25.816C213.365 25.2599 213.217 24.8429 212.922 24.5649C212.627 24.2868 212.257 24.1478 211.814 24.1478C211.31 24.1478 210.917 24.3086 210.635 24.63C210.352 24.9472 210.211 25.3664 210.211 25.8877V32H207.52V25.7574C207.52 25.2665 207.379 24.8755 207.096 24.5844C206.818 24.2933 206.451 24.1478 205.995 24.1478C205.687 24.1478 205.409 24.226 205.161 24.3824C204.918 24.5345 204.725 24.7495 204.581 25.0275C204.438 25.3012 204.366 25.6227 204.366 25.9919V32H201.59Z" fill="black"/>
<defs>
<linearGradient id="paint0_linear_32_108" x1="29" y1="9" x2="29" y2="41" gradientUnits="userSpaceOnUse">
<stop stop-color="#C93D34"/>
<stop offset="1" stop-color="#7A2629"/>
</linearGradient>
<linearGradient id="paint1_linear_32_108" x1="29" y1="9" x2="29" y2="41" gradientUnits="userSpaceOnUse">
<stop stop-color="#C93D34"/>
<stop offset="1" stop-color="#7A2629"/>
</linearGradient>
</defs>
</svg>
